<svg width="1000" height="1000" viewBox="0 0 1000 1000" fill="none" xmlns="http://www.w3.org/2000/svg">
<path d="M357.241 101.498C357.263 101.476 357.267 101.44 357.25 101.413C346.831 85.1073 325.194 80.2697 308.867 90.667C292.524 101.074 287.667 122.736 298.074 139.079C305.124 150.151 334.924 167.095 353.414 176.875C360.278 180.505 368.266 175.434 367.9 167.678C366.917 146.811 364.259 112.698 357.23 101.58C357.213 101.553 357.218 101.521 357.241 101.498V101.498Z" fill="#F7AC4A"/>
<path d="M345.87 110.864C339.935 101.459 327.446 98.6836 318.118 104.697C308.713 110.633 305.938 123.121 311.951 132.449C316.119 139.052 334.346 149.227 344.837 154.704C348.273 156.498 352.256 153.965 352.089 150.093C351.579 138.26 350.093 117.414 345.87 110.864Z" fill="#F7AC4A"/>
<path d="M143.67 291.555C127.327 281.225 105.665 286.005 95.258 302.425C84.928 318.768 89.7076 340.43 106.128 350.837C117.203 357.838 151.397 360.448 172.289 361.404C180.041 361.758 185.103 353.773 181.476 346.914C171.698 328.425 154.746 298.608 143.67 291.555Z" fill="#F7AC4A"/>
<path d="M137.704 305.188C137.705 305.204 137.687 305.213 137.674 305.204C128.618 298.867 116.056 301.019 109.699 310.066C103.334 319.123 105.48 331.708 114.538 338.072C120.896 342.54 141.635 345.024 153.433 346.107C157.297 346.462 160.022 342.6 158.39 339.079C153.421 328.358 144.143 309.725 137.733 305.17C137.72 305.161 137.704 305.172 137.704 305.188V305.188Z" fill="#F7AC4A"/>
<path d="M103.574 645.613C87.15 655.858 82.0875 677.477 92.3324 693.901C102.577 710.325 124.196 715.387 140.62 705.142C151.75 698.199 168.961 668.521 178.9 650.11C182.586 643.281 177.59 635.253 169.835 635.544C148.929 636.331 114.704 638.67 103.574 645.613Z" fill="#F7AC4A"/>
<path d="M111.919 660.601C102.848 667.034 100.674 679.539 107.106 688.61C113.538 697.681 126.116 699.831 135.114 693.424C141.478 688.911 150.763 670.23 155.739 659.481C157.37 655.957 154.639 652.093 150.772 652.456C138.982 653.562 118.283 656.089 111.919 660.601Z" fill="#F7AC4A"/>
<path d="M712.887 138.416C723.57 122.252 719.082 100.511 702.918 89.8275C686.754 79.1444 665.013 83.6325 654.33 99.7965C647.089 110.752 643.846 144.903 642.508 165.775C642.012 173.517 649.9 178.723 656.824 175.224C675.497 165.786 705.646 149.373 712.887 138.416Z" fill="#F7AC4A"/>
<path d="M699.365 133.406C699.389 133.407 699.412 133.395 699.425 133.375C705.797 124.311 703.691 111.807 694.637 105.338C685.571 98.9391 673.045 101.04 666.568 110.105C662.079 116.466 659.509 137.167 658.375 148.956C658.003 152.821 661.858 155.562 665.386 153.941C676.127 149.005 694.778 139.795 699.305 133.435C699.319 133.416 699.34 133.406 699.365 133.406V133.406Z" fill="#F7AC4A"/>
<path d="M902.815 349.411C902.841 349.385 902.869 349.362 902.899 349.342C919.051 338.616 923.426 316.903 912.721 300.806C902.005 284.617 880.266 280.223 864.154 290.939C853.185 298.199 836.801 328.322 827.376 346.993C823.878 353.922 829.096 361.81 836.842 361.304C857.69 359.94 891.769 356.667 902.733 349.478C902.764 349.458 902.789 349.437 902.815 349.411V349.411Z" fill="#F7AC4A"/>
<path d="M895.17 337.259C895.158 337.259 895.154 337.244 895.163 337.237C904.388 330.986 906.765 318.516 900.605 309.352C894.36 300.102 881.872 297.712 872.698 303.879C866.208 308.26 856.531 326.717 851.333 337.344C849.628 340.83 852.272 344.749 856.143 344.475C867.934 343.638 888.652 341.593 895.178 337.279C895.188 337.273 895.181 337.259 895.17 337.259V337.259Z" fill="#F7AC4A"/>
<path d="M860.921 705.333C876.416 716.974 898.386 713.89 910.027 698.472C921.667 682.977 918.584 661.007 903.166 649.366C892.719 641.479 858.844 636.069 838.085 633.401C830.382 632.411 824.681 639.964 827.745 647.1C835.999 666.322 850.476 697.396 860.921 705.333Z" fill="#F7AC4A"/>
<path d="M868.082 692.312C868.082 692.296 868.101 692.287 868.114 692.297C877.131 698.822 889.675 696.812 896.143 687.803C902.696 678.783 900.691 666.218 891.672 659.742C885.344 655.199 864.676 652.44 852.902 651.197C849.04 650.789 846.263 654.619 847.852 658.163C852.688 668.951 861.727 687.696 868.053 692.33C868.066 692.339 868.082 692.329 868.082 692.312V692.312Z" fill="#F7AC4A"/>
<path d="M632.969 891.25C640.844 908.919 661.568 916.923 679.237 909.048C696.906 901.173 704.91 880.45 697.035 862.781C691.699 850.808 664.704 829.66 647.852 817.269C641.599 812.671 632.954 816.507 632.169 824.23C630.054 845.049 627.633 879.276 632.969 891.25Z" fill="#F7AC4A"/>
<path d="M648.804 885.417C653.285 895.57 665.156 900.252 675.309 895.771C685.462 891.289 690.144 879.419 685.662 869.266C682.518 862.14 666.052 849.285 656.511 842.252C653.386 839.948 649.054 841.848 648.633 845.708C647.346 857.486 645.659 878.292 648.804 885.417Z" fill="#F7AC4A"/>
<path d="M301.171 862.684C301.147 862.684 301.125 862.698 301.115 862.719C292.276 879.904 298.985 901.081 316.242 909.94C333.433 918.806 354.633 912.099 363.498 894.831C369.505 883.183 369.106 848.884 368.224 827.977C367.897 820.219 359.49 815.878 352.976 820.104C335.433 831.483 307.269 850.999 301.226 862.652C301.215 862.673 301.195 862.684 301.171 862.684V862.684Z" fill="#F7AC4A"/>
<path d="M314.392 867.752C314.39 867.777 314.383 867.802 314.372 867.824C309.268 877.678 313.029 889.801 322.877 894.925C332.738 900.056 344.883 896.297 350.013 886.437C353.612 879.52 353.376 858.663 352.915 846.828C352.764 842.948 348.573 840.75 345.295 842.831C335.307 849.172 318.045 860.812 314.412 867.681C314.4 867.703 314.394 867.726 314.392 867.752V867.752Z" fill="#F7AC4A"/>
<path d="M811.838 187.689C806.788 187.882 802.884 183.752 803.36 178.721C805.243 158.774 813.18 110.276 846.455 78.7935C879.775 47.3208 928.59 42.0724 948.604 41.2924C953.658 41.0955 957.566 45.2267 957.091 50.2616C955.206 70.2134 947.266 118.702 913.996 150.18C880.67 181.711 831.846 186.926 811.838 187.689Z" fill="#324C66"/>
<path d="M847.999 153.319C842.959 153.728 839.042 149.596 839.721 144.585C841.38 132.351 846.501 110.343 862.286 95.4545C878.023 80.5648 900.282 76.6509 912.59 75.6561C917.63 75.2486 921.547 79.3807 920.867 84.3918C919.209 96.6264 914.088 118.635 898.303 133.523C882.524 148.405 860.294 152.322 847.999 153.319Z" fill="#324C66"/>
<path d="M816.469 815.359C811.419 815.166 807.516 819.296 807.991 824.328C809.874 844.274 817.811 892.772 851.086 924.255C884.406 955.727 933.221 960.976 953.236 961.756C958.289 961.953 962.197 957.821 961.722 952.787C959.837 932.835 951.897 884.346 918.627 852.868C885.301 821.337 836.477 816.122 816.469 815.359Z" fill="#324C66"/>
<path d="M852.63 849.729C847.59 849.321 843.673 853.452 844.352 858.463C846.011 870.698 851.132 892.706 866.917 907.594C882.654 922.484 904.913 926.398 917.221 927.393C922.261 927.8 926.178 923.668 925.498 918.657C923.84 906.422 918.719 884.414 902.934 869.526C887.155 854.643 864.925 850.726 852.63 849.729Z" fill="#324C66"/>
<path d="M47.0255 961.763C41.9755 961.956 38.0722 957.826 38.5473 952.795C40.4307 932.848 48.3674 884.35 81.6426 852.868C114.962 821.395 163.778 816.146 183.792 815.367C188.846 815.17 192.754 819.301 192.278 824.336C190.393 844.287 182.454 892.776 149.184 924.254C115.858 955.785 67.0341 961 47.0255 961.763Z" fill="#324C66"/>
<path d="M83.1869 927.394C78.1466 927.802 74.2297 923.671 74.909 918.66C76.5674 906.425 81.6885 884.417 97.4733 869.529C113.211 854.639 135.469 850.725 147.777 849.73C152.818 849.323 156.734 853.455 156.055 858.466C154.397 870.701 149.276 892.709 133.491 907.597C117.712 922.48 95.4818 926.397 83.1869 927.394Z" fill="#324C66"/>
<path d="M46.0992 38.7383C41.0469 38.62 37.2047 42.807 37.7538 47.8307C39.9304 67.7472 48.5796 116.123 82.3143 147.113C116.093 178.092 164.981 182.622 185.004 183.107C190.06 183.23 193.907 179.042 193.358 174.014C191.179 154.093 182.528 105.726 148.798 74.7406C115.012 43.7034 66.1168 39.2067 46.0992 38.7383Z" fill="#324C66"/>
<path d="M82.7619 72.573C77.7161 72.2384 73.8605 76.4273 74.6134 81.4278C76.4516 93.6365 81.8958 115.567 97.8979 130.221C113.853 144.878 136.167 148.464 148.488 149.278C153.534 149.611 157.389 145.422 156.636 140.421C154.798 128.212 149.354 106.282 133.352 91.6277C117.355 76.9786 95.0701 73.3891 82.7619 72.573Z" fill="#324C66"/>
<path d="M615.913 797.976C619.664 794.225 624.751 792.118 630.055 792.118H773.97C785.016 792.118 793.97 783.164 793.97 772.118V628.203C793.97 622.899 796.077 617.812 799.828 614.061L901.599 512.29C909.409 504.48 909.409 491.816 901.599 484.006L799.828 382.235C796.077 378.484 793.97 373.397 793.97 368.093V224.178C793.97 213.132 785.016 204.178 773.97 204.178H630.055C624.751 204.178 619.664 202.071 615.913 198.32L514.142 96.5495C506.332 88.739 493.669 88.739 485.858 96.5495L384.087 198.32C380.337 202.071 375.25 204.178 369.945 204.178H226.03C214.985 204.178 206.03 213.132 206.03 224.178V368.093C206.03 373.397 203.923 378.484 200.172 382.235L98.4016 484.006C90.5912 491.816 90.5912 504.48 98.4017 512.29L200.172 614.061C203.923 617.812 206.03 622.899 206.03 628.203V772.118C206.03 783.164 214.985 792.118 226.03 792.118H369.945C375.25 792.118 380.337 794.225 384.087 797.976L485.858 899.747C493.669 907.557 506.332 907.557 514.142 899.747L615.913 797.976Z" fill="#74ABB4"/>
<path d="M574.88 679.394C576.755 677.519 579.299 676.465 581.951 676.465H675.375C680.898 676.465 685.375 671.988 685.375 666.465V572.95C685.375 570.296 686.431 567.75 688.309 565.875L754.434 499.831C758.342 495.928 758.346 489.596 754.443 485.688L688.391 419.554C686.52 417.681 685.468 415.143 685.466 412.496L685.384 319.054C685.379 313.535 680.904 309.063 675.384 309.063H581.951C579.299 309.063 576.755 308.009 574.88 306.134L508.835 240.09C504.932 236.186 498.603 236.184 494.698 240.085L428.563 306.138C426.688 308.011 424.146 309.063 421.496 309.063H328.068C322.545 309.063 318.068 313.54 318.068 319.063V412.578C318.068 415.232 317.012 417.778 315.134 419.654L249.018 485.688C245.106 489.595 245.106 495.933 249.018 499.839L315.134 565.875C317.012 567.75 318.068 570.296 318.068 572.95V666.465C318.068 671.988 322.545 676.465 328.068 676.465H421.496C424.146 676.465 426.688 677.517 428.563 679.39L494.698 745.443C498.603 749.344 504.932 749.342 508.835 745.438L574.88 679.394Z" fill="#324C66"/>
<path d="M538.725 592.731C539.975 591.481 541.671 590.778 543.439 590.778H591.519C595.2 590.778 598.185 587.794 598.185 584.112V535.984C598.185 534.215 598.889 532.518 600.141 531.267L634.171 497.279C636.777 494.677 636.779 490.456 634.177 487.851L600.183 453.814C598.936 452.565 598.235 450.873 598.233 449.109L598.191 401.018C598.188 397.338 595.204 394.357 591.524 394.357H543.439C541.671 394.357 539.975 393.654 538.725 392.404L504.736 358.415C502.133 355.813 497.915 355.811 495.311 358.412L461.274 392.407C460.024 393.655 458.329 394.357 456.562 394.357H408.48C404.799 394.357 401.814 397.341 401.814 401.023V449.151C401.814 450.92 401.11 452.617 399.858 453.868L365.833 487.851C363.226 490.455 363.226 494.68 365.833 497.284L399.858 531.267C401.11 532.518 401.814 534.215 401.814 535.984V584.112C401.814 587.794 404.799 590.778 408.48 590.778H456.562C458.329 590.778 460.024 591.48 461.274 592.728L495.311 626.723C497.915 629.324 502.133 629.322 504.736 626.72L538.725 592.731Z" fill="#F7AC4A"/>
<path d="M526.308 189.987C526.308 204.069 514.924 215.454 500.841 215.454C486.758 215.454 475.374 204.069 475.374 189.987C475.374 175.904 486.758 164.519 500.841 164.519C514.924 164.519 526.308 175.904 526.308 189.987Z" fill="#324C66"/>
<path d="M743.236 278.47C743.236 292.553 731.851 303.937 717.769 303.937C703.686 303.937 692.301 292.553 692.301 278.47C692.301 264.387 703.686 253.003 717.769 253.003C731.851 253.003 743.236 264.387 743.236 278.47Z" fill="#324C66"/>
<path d="M831.719 498.251C831.719 512.334 820.335 523.718 806.252 523.718C792.169 523.718 780.784 512.334 780.784 498.251C780.784 484.168 792.169 472.783 806.252 472.783C820.335 472.783 831.719 484.168 831.719 498.251Z" fill="#324C66"/>
<path d="M737.526 720.885C737.526 734.968 726.141 746.352 712.058 746.352C697.975 746.352 686.591 734.968 686.591 720.885C686.591 706.802 697.975 695.418 712.058 695.418C726.141 695.418 737.526 706.802 737.526 720.885Z" fill="#324C66"/>
<path d="M500.841 823.419C514.906 823.419 526.308 812.017 526.308 797.952C526.308 783.886 514.906 772.484 500.841 772.484C486.776 772.484 475.374 783.886 475.374 797.952C475.374 812.017 486.776 823.419 500.841 823.419Z" fill="#324C66"/>
<path d="M278.206 737.79C292.271 737.79 303.673 726.388 303.673 712.323C303.673 698.258 292.271 686.856 278.206 686.856C264.141 686.856 252.739 698.258 252.739 712.323C252.739 726.388 264.141 737.79 278.206 737.79Z" fill="#324C66"/>
<path d="M226.607 492.542C226.607 506.625 215.223 518.009 201.14 518.009C187.057 518.009 175.672 506.625 175.672 492.542C175.672 478.459 187.057 467.075 201.14 467.075C215.223 467.075 226.607 478.459 226.607 492.542Z" fill="#324C66"/>
<path d="M286.769 303.937C300.834 303.937 312.236 292.535 312.236 278.47C312.236 264.405 300.834 253.003 286.769 253.003C272.704 253.003 261.302 264.405 261.302 278.47C261.302 292.535 272.704 303.937 286.769 303.937Z" fill="#324C66"/>
</svg>
