<svg width="4449" height="1000" viewBox="0 0 4449 1000" fill="none" xmlns="http://www.w3.org/2000/svg">
<path d="M150.439 549.807C150.439 558.182 151.617 567.342 153.973 577.287C156.59 586.971 160.254 596.785 164.965 606.73C169.676 616.676 175.434 626.229 182.238 635.389C189.305 644.287 197.287 652.27 206.186 659.336C215.346 666.402 225.422 672.029 236.414 676.217C247.406 680.404 259.445 682.498 272.531 682.498C281.691 682.498 290.197 681.451 298.049 679.357C305.9 677.264 313.229 674.385 320.033 670.721C326.838 667.057 333.381 662.869 339.662 658.158C345.943 653.186 352.225 647.951 358.506 642.455L368.32 651.877C362.301 659.99 354.58 668.889 345.158 678.572C335.736 688.256 324.352 697.416 311.004 706.053C297.656 714.428 282.084 721.494 264.287 727.252C246.49 732.748 226.207 735.496 203.438 735.496C180.668 735.496 158.422 731.439 136.699 723.326C115.238 714.951 96.1328 702.52 79.3828 686.031C62.6328 669.543 49.1543 648.998 38.9473 624.396C29.002 599.795 24.0293 571.006 24.0293 538.029C24.0293 514.213 27.0391 492.359 33.0586 472.469C39.0781 452.578 47.1914 434.65 57.3984 418.686C67.8672 402.721 79.9062 388.719 93.5156 376.68C107.387 364.641 121.912 354.695 137.092 346.844C152.271 338.73 167.713 332.711 183.416 328.785C199.381 324.598 214.691 322.504 229.348 322.504C248.715 322.504 265.596 324.598 279.99 328.785C294.385 332.973 306.293 338.6 315.715 345.666C325.398 352.732 332.596 360.977 337.307 370.398C342.018 379.559 344.373 389.242 344.373 399.449C344.373 411.75 340.84 422.873 333.773 432.818C326.707 442.502 317.285 451.008 305.508 458.336L150.439 549.807ZM229.348 470.113C232.75 468.02 235.498 466.057 237.592 464.225C239.947 462.131 241.779 459.775 243.088 457.158C244.396 454.279 245.312 450.877 245.836 446.951C246.621 442.764 247.014 437.66 247.014 431.641C247.014 425.098 246.229 417.9 244.658 410.049C243.35 401.936 240.994 394.346 237.592 387.279C234.189 380.213 229.871 374.324 224.637 369.613C219.402 364.902 213.121 362.547 205.793 362.547C196.371 362.547 188.258 365.426 181.453 371.184C174.91 376.68 169.414 383.877 164.965 392.775C160.777 401.674 157.375 411.881 154.758 423.396C152.402 434.65 150.57 446.035 149.262 457.551C147.953 469.066 147.168 480.189 146.906 490.92C146.645 501.389 146.514 510.287 146.514 517.615L229.348 470.113ZM534.773 695.453C534.773 698.855 534.119 702.912 532.811 707.623C531.764 712.334 529.016 716.783 524.566 720.971C520.379 725.158 514.098 728.691 505.723 731.57C497.609 734.711 486.617 736.281 472.746 736.281C458.875 736.281 448.014 734.58 440.162 731.178C432.311 728.037 426.422 724.242 422.496 719.793C418.832 715.344 416.477 710.764 415.43 706.053C414.645 701.342 414.252 697.547 414.252 694.668V188.242C414.252 180.652 412.42 174.109 408.756 168.613C405.354 162.855 399.465 159.977 391.09 159.977C386.641 159.977 382.715 160.762 379.312 162.332C376.172 163.641 372.77 165.734 369.105 168.613L361.254 159.191C367.273 154.219 373.947 149.377 381.275 144.666C388.604 139.693 396.586 135.375 405.223 131.711C414.121 128.047 423.543 125.037 433.488 122.682C443.434 120.326 453.902 119.148 464.895 119.148C481.906 119.148 495.123 121.504 504.545 126.215C513.967 130.664 520.902 136.291 525.352 143.096C529.801 149.639 532.418 156.705 533.203 164.295C534.25 171.623 534.773 178.166 534.773 183.924V695.453ZM810.756 526.645C810.756 520.102 808.662 515.129 804.475 511.727C800.287 508.324 794.922 506.623 788.379 506.623C779.219 506.623 770.451 508.717 762.076 512.904C753.963 517.092 746.766 523.242 740.484 531.355C734.203 539.469 729.23 549.545 725.566 561.584C721.902 573.361 720.07 587.102 720.07 602.805C720.07 617.984 721.117 630.547 723.211 640.492C725.566 650.438 728.576 658.42 732.24 664.439C736.166 670.197 740.615 674.254 745.588 676.609C750.561 678.965 755.795 680.143 761.291 680.143C768.096 680.143 774.508 678.441 780.527 675.039C786.547 671.375 791.781 666.795 796.23 661.299C800.68 655.803 804.213 649.652 806.83 642.848C809.447 636.043 810.756 629.238 810.756 622.434V526.645ZM748.336 354.695C739.438 354.695 731.193 355.742 723.604 357.836C716.014 359.93 709.471 362.547 703.975 365.688C698.479 368.828 694.16 372.361 691.02 376.287C687.879 379.951 686.309 383.484 686.309 386.887C686.309 390.812 688.271 393.691 692.197 395.523C696.385 397.094 700.965 399.057 705.938 401.412C710.91 403.506 715.359 406.646 719.285 410.834C723.473 414.76 725.566 420.91 725.566 429.285C725.566 434.781 724.389 439.885 722.033 444.596C719.939 449.045 716.93 453.102 713.004 456.766C709.34 460.168 704.891 462.916 699.656 465.01C694.684 466.842 689.449 467.758 683.953 467.758C669.297 467.758 657.389 462.785 648.229 452.84C639.33 442.895 634.881 429.678 634.881 413.189C634.881 397.225 639.068 383.615 647.443 372.361C655.818 360.846 666.68 351.424 680.027 344.096C693.637 336.768 708.947 331.402 725.959 328C742.971 324.336 759.982 322.504 776.994 322.504C797.408 322.504 816.906 324.729 835.488 329.178C854.07 333.627 870.428 340.693 884.561 350.377C898.955 360.061 910.34 372.361 918.715 387.279C927.352 402.197 931.67 420.256 931.67 441.455V663.262C931.67 665.617 931.801 668.234 932.062 671.113C932.324 673.992 932.979 676.609 934.025 678.965C935.072 681.32 936.643 683.283 938.736 684.854C940.83 686.424 943.84 687.209 947.766 687.209C952.477 687.209 956.795 685.508 960.721 682.105C964.908 678.441 968.572 674.777 971.713 671.113L981.527 679.357C977.602 684.854 972.891 690.873 967.395 697.416C961.898 703.959 955.225 710.109 947.373 715.867C939.521 721.625 930.361 726.467 919.893 730.393C909.424 734.318 897.516 736.281 884.168 736.281C867.68 736.281 853.023 731.439 840.199 721.756C827.375 711.811 819 696.631 815.074 676.217C806.699 687.471 797.932 696.893 788.771 704.482C779.873 712.072 770.713 718.223 761.291 722.934C751.869 727.645 742.316 731.047 732.633 733.141C723.211 735.234 713.658 736.281 703.975 736.281C691.412 736.281 679.242 734.318 667.465 730.393C655.688 726.467 645.088 720.316 635.666 711.941C626.506 703.305 619.047 692.182 613.289 678.572C607.793 664.963 605.045 648.344 605.045 628.715C605.045 604.898 609.756 585.4 619.178 570.221C628.6 555.041 640.9 542.348 656.08 532.141C671.521 521.672 688.926 512.773 708.293 505.445C727.922 498.117 747.943 490.396 768.357 482.283C783.537 476.264 794.529 467.365 801.334 455.588C808.4 443.549 811.934 431.248 811.934 418.686C811.934 399.318 806.176 383.877 794.66 372.361C783.406 360.584 767.965 354.695 748.336 354.695ZM1155.83 695.453C1155.83 698.855 1155.18 702.912 1153.87 707.623C1152.82 712.334 1150.07 716.783 1145.62 720.971C1141.44 725.158 1135.16 728.691 1126.78 731.57C1118.67 734.711 1107.68 736.281 1093.8 736.281C1079.93 736.281 1069.07 734.58 1061.22 731.178C1053.37 728.037 1047.48 724.242 1043.55 719.793C1039.89 715.344 1037.54 710.764 1036.49 706.053C1035.7 701.342 1035.31 697.547 1035.31 694.668V188.242C1035.31 180.652 1033.48 174.109 1029.81 168.613C1026.41 162.855 1020.52 159.977 1012.15 159.977C1007.7 159.977 1003.77 160.762 1000.37 162.332C997.23 163.641 993.828 165.734 990.164 168.613L982.312 159.191C988.332 154.219 995.006 149.377 1002.33 144.666C1009.66 139.693 1017.64 135.375 1026.28 131.711C1035.18 128.047 1044.6 125.037 1054.55 122.682C1064.49 120.326 1074.96 119.148 1085.95 119.148C1102.96 119.148 1116.18 121.504 1125.6 126.215C1135.03 130.664 1141.96 136.291 1146.41 143.096C1150.86 149.639 1153.48 156.705 1154.26 164.295C1155.31 171.623 1155.83 178.166 1155.83 183.924V695.453ZM1380.39 694.668C1380.39 698.07 1379.73 702.258 1378.42 707.23C1377.38 711.941 1374.63 716.521 1370.18 720.971C1365.99 725.158 1359.84 728.691 1351.73 731.57C1343.62 734.711 1332.62 736.281 1318.75 736.281C1304.88 736.281 1294.02 734.58 1286.17 731.178C1278.32 728.037 1272.43 724.242 1268.5 719.793C1264.58 715.344 1262.09 710.764 1261.04 706.053C1260.26 701.342 1259.87 697.547 1259.87 694.668V391.598C1259.87 384.008 1258.03 377.465 1254.37 371.969C1250.97 366.211 1245.08 363.332 1236.7 363.332C1232.25 363.332 1228.46 364.117 1225.32 365.688C1222.18 367.258 1218.78 369.482 1215.11 372.361L1206.87 362.547C1212.89 357.574 1219.56 352.732 1226.89 348.021C1234.48 343.049 1242.59 338.73 1251.23 335.066C1259.87 331.402 1269.16 328.393 1279.1 326.037C1289.05 323.682 1299.52 322.504 1310.51 322.504C1327.52 322.504 1340.74 324.859 1350.16 329.57C1359.58 334.02 1366.52 339.646 1370.96 346.451C1375.41 352.994 1378.03 360.061 1378.82 367.65C1379.86 375.24 1380.39 381.914 1380.39 387.672V694.668ZM1247.7 232.996C1247.7 225.668 1249.27 218.732 1252.41 212.189C1255.81 205.385 1260.39 199.496 1266.15 194.523C1272.17 189.551 1278.97 185.625 1286.56 182.746C1294.41 179.867 1302.92 178.428 1312.08 178.428C1320.98 178.428 1329.22 179.867 1336.81 182.746C1344.66 185.625 1351.47 189.551 1357.22 194.523C1362.98 199.496 1367.43 205.385 1370.57 212.189C1373.97 218.732 1375.68 225.668 1375.68 232.996C1375.68 240.586 1373.97 247.652 1370.57 254.195C1367.43 260.738 1362.98 266.496 1357.22 271.469C1351.47 276.18 1344.66 279.975 1336.81 282.854C1329.22 285.732 1320.98 287.172 1312.08 287.172C1302.92 287.172 1294.41 285.732 1286.56 282.854C1278.97 279.975 1272.17 276.18 1266.15 271.469C1260.39 266.496 1255.81 260.738 1252.41 254.195C1249.27 247.652 1247.7 240.586 1247.7 232.996ZM1673.25 146.236C1665.92 146.236 1658.99 147.807 1652.44 150.947C1645.9 154.088 1640.14 159.191 1635.17 166.258C1630.46 173.062 1626.66 181.83 1623.79 192.561C1620.91 203.291 1619.47 216.246 1619.47 231.426V328H1705.44V356.266H1619.47V665.617C1619.47 701.211 1614.76 734.057 1605.33 764.154C1596.17 794.252 1582.17 820.162 1563.33 841.885C1544.48 863.869 1520.93 881.012 1492.66 893.312C1464.4 905.613 1431.42 911.764 1393.73 911.764C1380.39 911.764 1367.56 910.586 1355.26 908.23C1342.96 906.137 1332.1 903.127 1322.68 899.201C1313.26 895.275 1305.8 890.564 1300.3 885.068C1294.54 879.834 1291.66 873.945 1291.66 867.402C1291.66 862.691 1292.32 857.85 1293.63 852.877C1294.94 848.166 1296.9 843.848 1299.52 839.922C1302.13 835.996 1305.4 832.725 1309.33 830.107C1312.99 827.752 1317.31 826.574 1322.29 826.574C1325.16 826.574 1327.78 828.014 1330.14 830.893C1332.23 833.771 1334.46 837.305 1336.81 841.492C1339.17 845.68 1341.91 850.26 1345.05 855.232C1347.93 860.467 1351.73 865.178 1356.44 869.365C1361.15 873.553 1367.04 877.086 1374.11 879.965C1380.91 882.844 1389.29 884.283 1399.23 884.283C1412.58 884.283 1424.36 881.535 1434.56 876.039C1444.77 870.805 1453.54 863.477 1460.87 854.055C1468.19 844.633 1474.34 833.51 1479.32 820.686C1484.29 807.861 1488.21 794.121 1491.09 779.465C1493.97 764.809 1495.94 749.498 1496.98 733.533C1498.29 717.568 1498.95 701.604 1498.95 685.639V356.266H1426.71V328H1498.95V282.068C1498.95 259.037 1501.69 239.016 1507.19 222.004C1512.95 204.73 1520.41 190.074 1529.57 178.035C1538.99 165.996 1549.59 156.182 1561.37 148.592C1573.14 141.002 1585.05 134.982 1597.09 130.533C1609.39 126.084 1621.3 123.074 1632.81 121.504C1644.33 119.934 1654.41 119.148 1663.04 119.148C1681.62 119.148 1698.11 120.588 1712.51 123.467C1726.9 126.084 1738.94 129.748 1748.62 134.459C1758.31 138.908 1765.64 144.143 1770.61 150.162C1775.58 156.182 1778.07 162.332 1778.07 168.613C1778.07 173.324 1777.28 178.166 1775.71 183.139C1774.4 187.85 1772.44 192.299 1769.82 196.486C1767.21 200.412 1763.94 203.684 1760.01 206.301C1756.35 208.656 1752.16 209.834 1747.45 209.834C1744.57 209.834 1741.95 208.264 1739.6 205.123C1737.24 201.982 1734.75 198.057 1732.14 193.346C1729.52 188.635 1726.64 183.531 1723.5 178.035C1720.36 172.539 1716.43 167.436 1711.72 162.725C1707.27 158.014 1701.91 154.088 1695.63 150.947C1689.35 147.807 1681.89 146.236 1673.25 146.236ZM1909.97 526.645C1909.97 520.102 1907.88 515.129 1903.69 511.727C1899.51 508.324 1894.14 506.623 1887.6 506.623C1878.44 506.623 1869.67 508.717 1861.29 512.904C1853.18 517.092 1845.98 523.242 1839.7 531.355C1833.42 539.469 1828.45 549.545 1824.79 561.584C1821.12 573.361 1819.29 587.102 1819.29 602.805C1819.29 617.984 1820.34 630.547 1822.43 640.492C1824.79 650.438 1827.79 658.42 1831.46 664.439C1835.38 670.197 1839.83 674.254 1844.81 676.609C1849.78 678.965 1855.01 680.143 1860.51 680.143C1867.31 680.143 1873.73 678.441 1879.75 675.039C1885.77 671.375 1891 666.795 1895.45 661.299C1899.9 655.803 1903.43 649.652 1906.05 642.848C1908.67 636.043 1909.97 629.238 1909.97 622.434V526.645ZM1847.55 354.695C1838.66 354.695 1830.41 355.742 1822.82 357.836C1815.23 359.93 1808.69 362.547 1803.19 365.688C1797.7 368.828 1793.38 372.361 1790.24 376.287C1787.1 379.951 1785.53 383.484 1785.53 386.887C1785.53 390.812 1787.49 393.691 1791.42 395.523C1795.6 397.094 1800.18 399.057 1805.16 401.412C1810.13 403.506 1814.58 406.646 1818.5 410.834C1822.69 414.76 1824.79 420.91 1824.79 429.285C1824.79 434.781 1823.61 439.885 1821.25 444.596C1819.16 449.045 1816.15 453.102 1812.22 456.766C1808.56 460.168 1804.11 462.916 1798.88 465.01C1793.9 466.842 1788.67 467.758 1783.17 467.758C1768.52 467.758 1756.61 462.785 1747.45 452.84C1738.55 442.895 1734.1 429.678 1734.1 413.189C1734.1 397.225 1738.29 383.615 1746.66 372.361C1755.04 360.846 1765.9 351.424 1779.25 344.096C1792.86 336.768 1808.17 331.402 1825.18 328C1842.19 324.336 1859.2 322.504 1876.21 322.504C1896.63 322.504 1916.12 324.729 1934.71 329.178C1953.29 333.627 1969.65 340.693 1983.78 350.377C1998.17 360.061 2009.56 372.361 2017.93 387.279C2026.57 402.197 2030.89 420.256 2030.89 441.455V663.262C2030.89 665.617 2031.02 668.234 2031.28 671.113C2031.54 673.992 2032.2 676.609 2033.24 678.965C2034.29 681.32 2035.86 683.283 2037.96 684.854C2040.05 686.424 2043.06 687.209 2046.98 687.209C2051.7 687.209 2056.01 685.508 2059.94 682.105C2064.13 678.441 2067.79 674.777 2070.93 671.113L2080.75 679.357C2076.82 684.854 2072.11 690.873 2066.61 697.416C2061.12 703.959 2054.44 710.109 2046.59 715.867C2038.74 721.625 2029.58 726.467 2019.11 730.393C2008.64 734.318 1996.73 736.281 1983.39 736.281C1966.9 736.281 1952.24 731.439 1939.42 721.756C1926.59 711.811 1918.22 696.631 1914.29 676.217C1905.92 687.471 1897.15 696.893 1887.99 704.482C1879.09 712.072 1869.93 718.223 1860.51 722.934C1851.09 727.645 1841.54 731.047 1831.85 733.141C1822.43 735.234 1812.88 736.281 1803.19 736.281C1790.63 736.281 1778.46 734.318 1766.68 730.393C1754.91 726.467 1744.31 720.316 1734.88 711.941C1725.72 703.305 1718.27 692.182 1712.51 678.572C1707.01 664.963 1704.26 648.344 1704.26 628.715C1704.26 604.898 1708.97 585.4 1718.4 570.221C1727.82 555.041 1740.12 542.348 1755.3 532.141C1770.74 521.672 1788.14 512.773 1807.51 505.445C1827.14 498.117 1847.16 490.396 1867.58 482.283C1882.76 476.264 1893.75 467.365 1900.55 455.588C1907.62 443.549 1911.15 431.248 1911.15 418.686C1911.15 399.318 1905.39 383.877 1893.88 372.361C1882.62 360.584 1867.18 354.695 1847.55 354.695ZM2260.94 356.266V646.381C2260.94 660.252 2263.56 669.936 2268.79 675.432C2274.03 680.666 2281.22 683.283 2290.38 683.283C2297.45 683.283 2303.73 681.32 2309.23 677.395C2314.72 673.469 2319.43 669.02 2323.36 664.047C2328.07 658.551 2332.13 652.139 2335.53 644.811L2347.7 650.307C2343.77 658.682 2339.06 667.842 2333.57 677.787C2328.33 687.732 2321.27 697.023 2312.37 705.66C2303.47 714.035 2292.21 721.102 2278.61 726.859C2265.26 732.617 2248.38 735.496 2227.96 735.496C2216.45 735.496 2205.32 733.795 2194.59 730.393C2184.12 726.99 2174.7 721.625 2166.33 714.297C2158.21 706.969 2151.67 697.809 2146.7 686.816C2141.73 675.824 2139.24 662.607 2139.24 647.166V356.266H2095.27V328C2102.6 328 2112.81 326.168 2125.89 322.504C2138.98 318.578 2152.33 312.166 2165.94 303.268C2179.81 294.369 2192.63 282.461 2204.41 267.543C2216.19 252.625 2224.56 234.174 2229.53 212.189H2260.94V328H2324.93C2345.87 328 2356.34 324.467 2356.34 317.4C2356.34 314.783 2355.03 313.082 2352.41 312.297C2349.79 311.25 2346.78 310.072 2343.38 308.764C2340.24 307.193 2337.36 305.1 2334.74 302.482C2332.13 299.865 2330.82 295.547 2330.82 289.527C2330.82 282.199 2333.04 276.441 2337.49 272.254C2342.2 268.066 2348.22 265.973 2355.55 265.973C2360.26 265.973 2364.32 267.02 2367.72 269.113C2371.38 270.945 2374.39 273.562 2376.75 276.965C2379.11 280.105 2380.81 283.77 2381.85 287.957C2383.16 292.145 2383.82 296.332 2383.82 300.52C2383.82 317.531 2378.84 331.141 2368.9 341.348C2359.21 351.293 2343.51 356.266 2321.79 356.266H2260.94ZM2371.65 529C2371.65 494.715 2376.62 464.748 2386.56 439.1C2396.51 413.189 2409.73 391.598 2426.21 374.324C2442.96 357.051 2462.33 344.096 2484.32 335.459C2506.3 326.822 2529.33 322.504 2553.41 322.504C2577.49 322.504 2600.52 326.561 2622.5 334.674C2644.49 342.525 2663.72 354.695 2680.21 371.184C2696.96 387.672 2710.31 408.609 2720.26 433.996C2730.2 459.121 2735.17 488.957 2735.17 523.504C2735.17 557.789 2730.2 588.148 2720.26 614.582C2710.31 641.016 2696.96 663.262 2680.21 681.32C2663.72 699.379 2644.49 713.119 2622.5 722.541C2600.52 731.701 2577.49 736.281 2553.41 736.281C2529.33 736.281 2506.3 731.963 2484.32 723.326C2462.33 714.428 2442.96 701.342 2426.21 684.068C2409.73 666.795 2396.51 645.203 2386.56 619.293C2376.62 593.383 2371.65 563.285 2371.65 529ZM2613.08 525.074C2613.08 504.137 2612.3 483.984 2610.73 464.617C2609.42 444.988 2606.67 427.584 2602.48 412.404C2598.29 397.225 2592.28 385.186 2584.42 376.287C2576.57 367.127 2566.23 362.547 2553.41 362.547C2540.59 362.547 2530.25 367.389 2522.4 377.072C2514.54 386.494 2508.53 399.057 2504.34 414.76C2500.15 430.201 2497.4 447.867 2496.09 467.758C2494.79 487.648 2494.13 508.062 2494.13 529C2494.13 549.938 2494.79 570.482 2496.09 590.635C2497.4 610.525 2500.15 628.322 2504.34 644.025C2508.53 659.729 2514.54 672.422 2522.4 682.105C2530.25 691.527 2540.59 696.238 2553.41 696.238C2566.23 696.238 2576.57 691.266 2584.42 681.32C2592.28 671.375 2598.29 658.289 2602.48 642.062C2606.67 625.836 2609.42 607.516 2610.73 587.102C2612.3 566.688 2613.08 546.012 2613.08 525.074ZM2808.19 670.328C2808.19 661.168 2809.89 652.531 2813.3 644.418C2816.7 636.305 2821.28 629.238 2827.04 623.219C2833.06 617.199 2840.12 612.488 2848.24 609.086C2856.35 605.422 2864.99 603.59 2874.15 603.59C2883.31 603.59 2891.94 605.422 2900.06 609.086C2908.17 612.488 2915.24 617.199 2921.26 623.219C2927.28 629.238 2931.99 636.305 2935.39 644.418C2939.05 652.531 2940.88 661.168 2940.88 670.328C2940.88 679.75 2939.05 688.518 2935.39 696.631C2931.99 704.482 2927.28 711.418 2921.26 717.438C2915.24 723.195 2908.17 727.775 2900.06 731.178C2891.94 734.58 2883.31 736.281 2874.15 736.281C2864.99 736.281 2856.35 734.58 2848.24 731.178C2840.12 727.775 2833.06 723.195 2827.04 717.438C2821.28 711.418 2816.7 704.482 2813.3 696.631C2809.89 688.518 2808.19 679.75 2808.19 670.328ZM3259.27 534.496C3259.27 511.727 3258.09 490.396 3255.73 470.506C3253.38 450.354 3249.58 432.818 3244.35 417.9C3239.11 402.721 3232.44 390.812 3224.33 382.176C3216.21 373.277 3206.4 368.828 3194.88 368.828C3185.98 368.828 3178.39 371.053 3172.11 375.502C3166.09 379.689 3161.12 384.531 3157.2 390.027C3153.27 395.523 3150.39 401.02 3148.56 406.516C3146.73 411.75 3145.81 415.283 3145.81 417.115V534.496C3145.81 591.551 3150.52 633.033 3159.94 658.943C3169.63 684.854 3183.76 697.809 3202.34 697.809C3221.97 697.809 3236.37 684.592 3245.53 658.158C3254.69 631.725 3259.27 590.504 3259.27 534.496ZM3025.29 188.242C3025.29 180.652 3023.46 174.109 3019.79 168.613C3016.39 162.855 3010.5 159.977 3002.13 159.977C2997.68 159.977 2993.75 160.762 2990.35 162.332C2987.21 163.641 2983.81 165.734 2980.14 168.613L2972.29 159.191C2978.31 154.219 2984.98 149.377 2992.31 144.666C2999.9 139.693 3008.02 135.375 3016.65 131.711C3025.29 128.047 3034.58 125.037 3044.53 122.682C3054.47 120.326 3064.94 119.148 3075.93 119.148C3091.11 119.148 3103.28 121.504 3112.44 126.215C3121.86 130.664 3128.93 136.291 3133.64 143.096C3138.61 149.639 3141.88 156.836 3143.46 164.688C3145.03 172.277 3145.81 179.344 3145.81 185.887V360.977C3148.95 358.098 3153.01 354.564 3157.98 350.377C3162.95 345.928 3169.23 341.609 3176.82 337.422C3184.41 333.234 3193.44 329.701 3203.91 326.822C3214.64 323.943 3227.21 322.504 3241.6 322.504C3258.35 322.504 3275.1 326.43 3291.85 334.281C3308.6 341.871 3323.65 353.91 3337 370.398C3350.34 386.887 3361.21 408.086 3369.58 433.996C3377.96 459.906 3382.14 491.051 3382.14 527.43C3382.14 555.957 3378.22 582.914 3370.37 608.301C3362.78 633.688 3351.39 655.934 3336.21 675.039C3321.03 693.883 3302.06 708.801 3279.29 719.793C3256.52 730.785 3230.08 736.281 3199.99 736.281C3167.27 736.281 3139.66 731.047 3117.15 720.578C3094.91 709.848 3076.98 695.584 3063.37 677.787C3049.76 659.729 3039.95 638.791 3033.93 614.975C3028.17 591.158 3025.29 566.033 3025.29 539.6V188.242ZM3579.61 695.453C3579.61 698.855 3578.96 702.912 3577.65 707.623C3576.6 712.334 3573.85 716.783 3569.4 720.971C3565.21 725.158 3558.93 728.691 3550.56 731.57C3542.45 734.711 3531.45 736.281 3517.58 736.281C3503.71 736.281 3492.85 734.58 3485 731.178C3477.15 728.037 3471.26 724.242 3467.33 719.793C3463.67 715.344 3461.31 710.764 3460.27 706.053C3459.48 701.342 3459.09 697.547 3459.09 694.668V188.242C3459.09 180.652 3457.26 174.109 3453.59 168.613C3450.19 162.855 3444.3 159.977 3435.93 159.977C3431.48 159.977 3427.55 160.762 3424.15 162.332C3421.01 163.641 3417.61 165.734 3413.94 168.613L3406.09 159.191C3412.11 154.219 3418.78 149.377 3426.11 144.666C3433.44 139.693 3441.42 135.375 3450.06 131.711C3458.96 128.047 3468.38 125.037 3478.32 122.682C3488.27 120.326 3498.74 119.148 3509.73 119.148C3526.74 119.148 3539.96 121.504 3549.38 126.215C3558.8 130.664 3565.74 136.291 3570.19 143.096C3574.64 149.639 3577.25 156.705 3578.04 164.295C3579.09 171.623 3579.61 178.166 3579.61 183.924V695.453ZM3653.81 529C3653.81 494.715 3658.78 464.748 3668.72 439.1C3678.67 413.189 3691.89 391.598 3708.38 374.324C3725.12 357.051 3744.49 344.096 3766.48 335.459C3788.46 326.822 3811.49 322.504 3835.57 322.504C3859.65 322.504 3882.68 326.561 3904.66 334.674C3926.65 342.525 3945.88 354.695 3962.37 371.184C3979.12 387.672 3992.47 408.609 4002.42 433.996C4012.36 459.121 4017.33 488.957 4017.33 523.504C4017.33 557.789 4012.36 588.148 4002.42 614.582C3992.47 641.016 3979.12 663.262 3962.37 681.32C3945.88 699.379 3926.65 713.119 3904.66 722.541C3882.68 731.701 3859.65 736.281 3835.57 736.281C3811.49 736.281 3788.46 731.963 3766.48 723.326C3744.49 714.428 3725.12 701.342 3708.38 684.068C3691.89 666.795 3678.67 645.203 3668.72 619.293C3658.78 593.383 3653.81 563.285 3653.81 529ZM3895.24 525.074C3895.24 504.137 3894.46 483.984 3892.89 464.617C3891.58 444.988 3888.83 427.584 3884.64 412.404C3880.46 397.225 3874.44 385.186 3866.58 376.287C3858.73 367.127 3848.39 362.547 3835.57 362.547C3822.75 362.547 3812.41 367.389 3804.56 377.072C3796.71 386.494 3790.69 399.057 3786.5 414.76C3782.31 430.201 3779.56 447.867 3778.25 467.758C3776.95 487.648 3776.29 508.062 3776.29 529C3776.29 549.938 3776.95 570.482 3778.25 590.635C3779.56 610.525 3782.31 628.322 3786.5 644.025C3790.69 659.729 3796.71 672.422 3804.56 682.105C3812.41 691.527 3822.75 696.238 3835.57 696.238C3848.39 696.238 3858.73 691.266 3866.58 681.32C3874.44 671.375 3880.46 658.289 3884.64 642.062C3888.83 625.836 3891.58 607.516 3892.89 587.102C3894.46 566.688 3895.24 546.012 3895.24 525.074ZM4074.26 483.068C4074.26 456.373 4078.84 433.08 4088 413.189C4097.42 393.037 4109.98 376.287 4125.69 362.939C4141.39 349.33 4159.58 339.254 4180.25 332.711C4200.93 325.906 4222.65 322.504 4245.42 322.504C4268.19 322.504 4289.78 325.514 4310.2 331.533C4330.61 337.553 4348.67 346.844 4364.37 359.406C4369.35 351.816 4373.4 343.834 4376.54 335.459C4379.68 327.084 4381.25 318.709 4381.25 310.334C4381.25 299.342 4378.24 290.574 4372.22 284.031C4366.47 277.488 4359.01 274.217 4349.85 274.217V262.832C4355.61 261 4360.71 259.43 4365.16 258.121C4369.61 256.551 4373.66 255.373 4377.33 254.588C4380.99 253.803 4384.66 253.279 4388.32 253.018C4391.98 252.494 4396.04 252.232 4400.49 252.232C4412.79 252.232 4422.21 256.027 4428.76 263.617C4435.3 271.207 4438.57 281.676 4438.57 295.023C4438.57 302.875 4436.74 310.727 4433.07 318.578C4429.41 326.168 4424.83 333.496 4419.33 340.562C4413.84 347.629 4407.69 354.303 4400.88 360.584C4394.34 366.865 4388.06 372.361 4382.04 377.072C4393.03 389.635 4401.54 404.291 4407.56 421.041C4413.58 437.791 4416.59 456.896 4416.59 478.357C4416.59 505.314 4411.88 529.131 4402.45 549.807C4393.29 570.482 4380.86 587.887 4365.16 602.02C4349.46 616.152 4331.27 626.883 4310.59 634.211C4289.91 641.277 4268.19 644.811 4245.42 644.811C4232.07 644.811 4218.99 643.633 4206.16 641.277C4193.34 638.922 4181.3 635.52 4170.05 631.07C4165.86 634.211 4162.2 638.137 4159.05 642.848C4156.18 647.559 4154.74 652.793 4154.74 658.551C4154.74 668.234 4158.92 675.432 4167.3 680.143C4175.67 684.854 4186.8 688.256 4200.67 690.35C4214.54 692.443 4230.24 693.752 4247.78 694.275C4265.31 694.799 4283.24 695.715 4301.56 697.023C4320.14 698.07 4338.2 700.295 4355.74 703.697C4373.27 706.838 4388.97 712.203 4402.85 719.793C4416.72 727.121 4427.84 737.197 4436.21 750.021C4444.59 762.846 4448.78 779.465 4448.78 799.879C4448.78 814.797 4445.64 828.145 4439.36 839.922C4433.07 851.961 4424.57 862.43 4413.84 871.328C4403.37 880.488 4391.07 888.209 4376.94 894.49C4363.06 901.033 4348.28 906.268 4332.57 910.193C4317.13 914.381 4301.3 917.391 4285.07 919.223C4269.11 921.055 4253.8 921.971 4239.14 921.971C4212.45 921.971 4188.37 920.531 4166.91 917.652C4145.71 915.035 4127.65 910.848 4112.73 905.09C4097.81 899.332 4086.3 891.873 4078.18 882.713C4070.07 873.553 4066.01 862.561 4066.01 849.736C4066.01 840.576 4068.11 832.07 4072.29 824.219C4076.48 816.629 4081.98 809.562 4088.78 803.02C4095.85 796.738 4103.7 790.98 4112.34 785.746C4120.97 780.773 4129.74 776.062 4138.64 771.613C4125.55 766.117 4114.56 757.742 4105.66 746.488C4097.03 735.496 4092.71 720.84 4092.71 702.52C4092.71 692.836 4094.41 683.938 4097.81 675.824C4101.21 667.449 4105.53 659.859 4110.77 653.055C4116.26 645.988 4122.15 639.707 4128.43 634.211C4134.98 628.453 4141.26 623.611 4147.28 619.686C4136.55 613.404 4126.6 605.814 4117.44 596.916C4108.54 587.756 4100.82 577.549 4094.28 566.295C4088 554.779 4083.03 542.086 4079.36 528.215C4075.96 514.344 4074.26 499.295 4074.26 483.068ZM4298.42 479.928C4298.42 464.748 4297.63 449.961 4296.06 435.566C4294.49 421.172 4291.75 408.348 4287.82 397.094C4283.89 385.84 4278.53 376.811 4271.72 370.006C4264.92 362.939 4256.15 359.406 4245.42 359.406C4234.69 359.406 4225.92 363.07 4219.12 370.398C4212.31 377.465 4206.95 386.887 4203.02 398.664C4199.1 410.18 4196.35 423.396 4194.78 438.314C4193.21 452.971 4192.42 467.889 4192.42 483.068C4192.42 498.51 4193.21 513.689 4194.78 528.607C4196.35 543.525 4199.1 556.873 4203.02 568.65C4206.95 580.428 4212.31 589.98 4219.12 597.309C4225.92 604.375 4234.69 607.908 4245.42 607.908C4256.15 607.908 4264.92 604.113 4271.72 596.523C4278.53 588.934 4283.89 579.119 4287.82 567.08C4291.75 554.779 4294.49 541.039 4296.06 525.859C4297.63 510.68 4298.42 495.369 4298.42 479.928ZM4358.09 831.285C4358.09 822.91 4354.82 815.975 4348.28 810.479C4341.73 805.244 4333.1 800.926 4322.37 797.523C4311.9 794.383 4299.86 791.896 4286.25 790.064C4272.9 788.494 4259.29 787.186 4245.42 786.139C4231.55 785.354 4218.07 784.568 4204.99 783.783C4191.9 782.998 4180.52 781.951 4170.83 780.643C4165.34 784.568 4159.97 788.756 4154.74 793.205C4149.76 797.916 4145.31 802.758 4141.39 807.73C4137.72 812.965 4134.71 818.33 4132.36 823.826C4130 829.584 4128.83 835.342 4128.83 841.1C4128.83 851.045 4131.71 859.289 4137.46 865.832C4143.22 872.637 4150.94 878.002 4160.62 881.928C4170.57 885.854 4181.96 888.602 4194.78 890.172C4207.87 891.742 4221.61 892.527 4236 892.527C4255.11 892.527 4272.25 890.826 4287.43 887.424C4302.61 884.283 4315.43 879.834 4325.9 874.076C4336.37 868.58 4344.35 862.168 4349.85 854.84C4355.34 847.512 4358.09 839.66 4358.09 831.285Z" fill="#324C66"/>
</svg>
