<svg width="100" height="100" viewBox="0 0 100 100" fill="none" xmlns="http://www.w3.org/2000/svg">
<path d="M100 56.25V61.25H88.63C87.97 61.25 87.33 60.99 86.86 60.52L81.75 55.41C80.71 54.37 79.03 54.37 78 55.41L74.4 59.01C73.9 59.51 73.62 60.18 73.62 60.89V65.98C73.62 67.45 74.81 68.63 76.27 68.63H83.49C84.15 68.63 84.79 68.89 85.26 69.36L99.99 84.09V91.16L83.24 74.41C82.74 73.91 82.07 73.63 81.36 73.63H76.27C74.8 73.63 73.62 74.82 73.62 76.28V81.37C73.62 82.07 73.9 82.75 74.4 83.25L91.15 100H84.08L69.35 85.27C68.88 84.8 68.62 84.17 68.62 83.5V76.28C68.62 74.81 67.43 73.63 65.97 73.63H59.78L53.53 79.88L60.52 86.86C60.99 87.33 61.25 87.96 61.25 88.63V100H56.25V90.77C56.25 90.07 55.97 89.39 55.47 88.89L51.87 85.29C50.83 84.25 49.15 84.25 48.12 85.29L44.52 88.89C44.02 89.39 43.74 90.06 43.74 90.77V100H38.74V88.63C38.74 87.97 39 87.33 39.47 86.86L44.58 81.75C45.62 80.71 45.62 79.03 44.58 78L40.2 73.62H34.01C32.54 73.62 31.36 74.81 31.36 76.27V83.49C31.36 84.15 31.1 84.79 30.63 85.26L15.9 99.99H8.83L25.58 83.24C26.08 82.74 26.36 82.07 26.36 81.36V76.27C26.36 74.8 25.17 73.62 23.71 73.62H18.62C17.92 73.62 17.24 73.9 16.74 74.4L0 91.16V84.09L14.73 69.36C15.2 68.89 15.83 68.63 16.5 68.63H23.72C25.19 68.63 26.37 67.44 26.37 65.98V60.89C26.37 60.19 26.09 59.51 25.59 59.01L21.99 55.41C20.95 54.37 19.27 54.37 18.24 55.41L13.13 60.52C12.66 60.99 12.03 61.25 11.36 61.25H0V56.25H9.23C9.93 56.25 10.61 55.97 11.11 55.47L14.71 51.87C15.75 50.83 15.75 49.15 14.71 48.12L11.11 44.52C10.61 44.02 9.94 43.74 9.23 43.74H0V38.74H11.37C12.03 38.74 12.67 39 13.14 39.47L18.25 44.58C19.29 45.62 20.97 45.62 22 44.58L25.6 40.98C26.1 40.48 26.38 39.81 26.38 39.1V34.02C26.38 32.55 25.19 31.37 23.73 31.37H16.51C15.85 31.37 15.21 31.11 14.74 30.64L0 15.91V8.84L16.75 25.59C17.25 26.09 17.92 26.37 18.63 26.37H23.72C25.19 26.37 26.37 25.18 26.37 23.72V18.63C26.37 17.93 26.09 17.25 25.59 16.75L8.84 0H15.91L30.64 14.73C31.11 15.2 31.37 15.83 31.37 16.5V23.72C31.37 25.19 32.56 26.37 34.02 26.37H39.11C39.81 26.37 40.49 26.09 40.99 25.59L44.59 21.99C45.63 20.95 45.63 19.27 44.59 18.24L39.48 13.14C39.01 12.67 38.75 12.04 38.75 11.37V0H43.75V9.24C43.75 9.94 44.03 10.62 44.53 11.12L48.13 14.72C49.17 15.76 50.85 15.76 51.88 14.72L55.48 11.12C55.98 10.62 56.26 9.95 56.26 9.24V0H61.26V11.37C61.26 12.03 61 12.67 60.53 13.14L55.42 18.24C54.38 19.28 54.38 20.96 55.42 21.99L59.02 25.59C59.52 26.09 60.19 26.37 60.9 26.37H65.99C67.46 26.37 68.64 25.18 68.64 23.72V16.5C68.64 15.84 68.9 15.2 69.37 14.73L84.09 0H91.16L74.4 16.75C73.9 17.25 73.62 17.92 73.62 18.63V23.72C73.62 25.19 74.81 26.37 76.27 26.37H81.36C82.06 26.37 82.74 26.09 83.24 25.59L99.99 8.84V15.91L85.26 30.64C84.79 31.11 84.16 31.37 83.49 31.37H76.27C74.8 31.37 73.62 32.56 73.62 34.02V39.1C73.62 39.8 73.9 40.48 74.4 40.98L78 44.58C79.04 45.62 80.72 45.62 81.75 44.58L86.85 39.47C87.32 39 87.95 38.74 88.62 38.74H99.99V43.74H90.76C90.06 43.74 89.38 44.02 88.88 44.52L85.28 48.12C84.24 49.16 84.24 50.84 85.28 51.87L88.88 55.47C89.38 55.97 90.05 56.25 90.76 56.25H99.99H100ZM74.47 48.12L69.36 43.01C68.89 42.54 68.63 41.9 68.63 41.24V34.02C68.63 32.55 67.44 31.37 65.98 31.37H58.76C58.1 31.37 57.46 31.11 56.99 30.64L51.88 25.53C50.84 24.49 49.16 24.49 48.13 25.53L43.02 30.64C42.55 31.11 41.92 31.37 41.25 31.37H34.03C32.56 31.37 31.38 32.56 31.38 34.02V41.24C31.38 41.9 31.12 42.54 30.65 43.01L25.54 48.12C24.5 49.16 24.5 50.84 25.54 51.87L30.65 56.98C31.12 57.45 31.38 58.08 31.38 58.75V65.97C31.38 67.44 32.57 68.62 34.03 68.62H41.25C41.91 68.62 42.55 68.88 43.02 69.35L48.13 74.46C49.17 75.5 50.85 75.5 51.88 74.46L56.99 69.35C57.46 68.88 58.09 68.62 58.76 68.62H65.98C67.45 68.62 68.63 67.43 68.63 65.97V58.75C68.63 58.09 68.89 57.45 69.36 56.98L74.47 51.87C75.51 50.83 75.51 49.15 74.47 48.12Z" fill="white"/>
<path d="M62.25 45.58C61.95 45.28 61.79 44.88 61.79 44.46V39.89C61.79 38.96 61.04 38.21 60.11 38.21H55.54C55.12 38.21 54.72 38.04 54.42 37.75L51.19 34.52C50.53 33.86 49.47 33.86 48.81 34.52L45.58 37.75C45.28 38.05 44.88 38.21 44.46 38.21H39.89C38.96 38.21 38.21 38.96 38.21 39.89V44.46C38.21 44.88 38.04 45.28 37.75 45.58L34.52 48.81C33.86 49.47 33.86 50.53 34.52 51.19L37.75 54.42C38.05 54.72 38.21 55.12 38.21 55.54V60.11C38.21 61.04 38.96 61.79 39.89 61.79H44.46C44.88 61.79 45.28 61.96 45.58 62.25L48.81 65.48C49.47 66.14 50.53 66.14 51.19 65.48L54.42 62.25C54.72 61.95 55.12 61.79 55.54 61.79H60.11C61.04 61.79 61.79 61.04 61.79 60.11V55.54C61.79 55.12 61.96 54.72 62.25 54.42L65.48 51.19C66.14 50.53 66.14 49.47 65.48 48.81L62.25 45.58Z" fill="white"/>
</svg>
